{"title":"Two Tickets to Broadway (1951) webrip XviD-pong","uid":15594707,"size":737281682,"categoryP":"video","categoryS":"movies","magnet":"?xt=urn:btih:4a811e065fe92debb2bf2a6da8577143a51ce877&amp;dn=Two+Tickets+to+Broadway+%281951%29+webrip+XviD-pong&amp;tr=udp%3A%2F%2Ftracker.leechers-paradise.org%3A6969&amp;tr=udp%3A%2F%2Fzer0day.ch%3A1337&amp;tr=udp%3A%2F%2Fopen.demonii.com%3A1337&amp;tr=udp%3A%2F%2Ftracker.coppersurfer.tk%3A6969&amp;tr=udp%3A%2F%2Fexodus.desync.com%3A6969","seeders":0,"leechers":1,"uploader":"Pongydog","files":1,"time":1471553157,"description":"http://www.imdb.com/title/tt0044158/\r\n\r\nNancy Peterson and her friends want to get a spot on Bob Crosby's TV show, but their agent has linked them. \r\n\r\nDirector: James V. Kern  \r\n\r\nWriters: Sid Silvers (screenplay),  Hal Kanter (screenplay)  | 1 more credit » \r\n\r\nStars: Tony Martin,  Janet Leigh,  Gloria DeHaven  | See full cast &amp; crew » \r\n\r\nGeneral\r\nComplete name                            : C:Usersuser1VideosTwo Tickets to Broadway (1951) webrip XviD-pong.avi\r\nFormat                                   : AVI\r\nFormat/Info                              : Audio Video Interleave\r\nFile size                                : 703 MiB\r\nDuration                                 : 1h 41mn\r\nOverall bit rate                         : 970 Kbps\r\nWriting application                      : Lavf57.36.100\r\n\r\nVideo\r\nID                                       : 0\r\nFormat                                   : MPEG-4 Visual\r\nFormat profile                           :   \r\nFormat settings, BVOP                    : No\r\nFormat settings, QPel                    : No\r\nFormat settings, GMC                     : No warppoints\r\nFormat settings, Matrix                  : Default (H.263)\r\nCodec ID                                 : XVID\r\nCodec ID/Hint                            : XviD\r\nDuration                                 : 1h 41mn\r\nBit rate                                 : 888 Kbps\r\nWidth                                    : 528 pixels\r\nHeight                                   : 396 pixels\r\nDisplay aspect ratio                     : 4:3\r\nFrame rate                               : 50.000 fps\r\nColor space                              : YUV\r\nChroma subsampling                       : 4:2:0\r\nBit depth                                : 8 bits\r\nScan type                                : Progressive\r\nCompression mode                         : Lossy\r\nBits/(Pixel*Frame)                       : 0.085\r\nStream size                              : 644 MiB (92%)\r\nWriting library                          : XviD 67\r\n\r\nAudio\r\nID                                       : 1\r\nFormat                                   : MPEG Audio\r\nFormat version                           : Version 1\r\nFormat profile                           : Layer 3\r\nCodec ID                                 : 55\r\nCodec ID/Hint                            : MP3\r\nDuration                                 : 1h 41mn\r\nBit rate mode                            : Constant\r\nBit rate                                 : 64.0 Kbps\r\nChannel(s)                               : 1 channel\r\nSampling rate                            : 48.0 KHz\r\nCompression mode                         : Lossy\r\nStream size                              : 46.4 MiB (7%)\r\nAlignment                                : Aligned on interleaves\r\nInterleave, duration                     : 24 ms (1.20 video frame)\r\nInterleave, preload duration             : 24 ms","torrent":{"xt":"urn:btih:4a811e065fe92debb2bf2a6da8577143a51ce877","amp;dn":"Two+Tickets+to+Broadway+%281951%29+webrip+XviD-pong","amp;tr":["udp%3A%2F%2Ftracker.leechers-paradise.org%3A6969","udp%3A%2F%2Fzer0day.ch%3A1337","udp%3A%2F%2Fopen.demonii.com%3A1337","udp%3A%2F%2Ftracker.coppersurfer.tk%3A6969","udp%3A%2F%2Fexodus.desync.com%3A6969"],"infoHash":"4a811e065fe92debb2bf2a6da8577143a51ce877","infoHashBuffer":{"type":"Buffer","data":[74,129,30,6,95,233,45,235,178,191,42,109,168,87,113,67,165,28,232,119]},"announce":[],"urlList":[]}}